<svg width="24" height="23" viewBox="0 0 24 23" fill="none" xmlns="http://www.w3.org/2000/svg">
<path d="M23.4736 4.8484C23.0186 4.29247 22.3109 3.95457 21.5785 3.95457H6.19066L5.71097 2.16691C5.43262 1.12772 4.47323 0.402832 3.36082 0.402832H0.783719C0.354361 0.402832 0 0.740725 0 1.15227C0 1.56284 0.353351 1.9017 0.783719 1.9017H3.36082C3.73985 1.9017 4.06854 2.14333 4.1692 2.50577L7.25167 14.2494C7.53003 15.2886 8.48941 16.0135 9.60182 16.0135H19.6833C20.7947 16.0135 21.7808 15.2886 22.0335 14.2494L23.9286 6.80699C24.1053 6.1293 23.9543 5.40434 23.4736 4.8484ZM22.3879 6.46712L20.4928 13.9095C20.3921 14.272 20.0634 14.5136 19.6844 14.5136H9.60185C9.22282 14.5136 8.89413 14.272 8.79347 13.9095L6.59533 5.47717H21.5796C21.8323 5.47717 22.085 5.59798 22.237 5.79148C22.388 5.98403 22.4629 6.22549 22.3879 6.46712Z" fill="white"/>
<path d="M10.1332 16.9779C8.69316 16.9779 7.50586 18.1134 7.50586 19.4904C7.50586 20.8674 8.69326 22.0028 10.1332 22.0028C11.5733 22.0038 12.7606 20.8683 12.7606 19.4911C12.7606 18.1139 11.5732 16.9779 10.1332 16.9779ZM10.1332 20.4815C9.55188 20.4815 9.09685 20.0464 9.09685 19.4905C9.09685 18.9345 9.55188 18.4994 10.1332 18.4994C10.7146 18.4994 11.1697 18.9345 11.1697 19.4905C11.1687 20.0228 10.689 20.4815 10.1332 20.4815Z" fill="white"/>
<path d="M18.825 16.9779C17.385 16.9779 16.1977 18.1133 16.1977 19.4903C16.1977 20.8673 17.3851 22.0028 18.825 22.0028C20.265 22.0028 21.4524 20.8673 21.4524 19.4903C21.4278 18.1142 20.265 16.9779 18.825 16.9779ZM18.825 20.4815C18.2437 20.4815 17.7886 20.0463 17.7886 19.4904C17.7886 18.9345 18.2437 18.4993 18.825 18.4993C19.4064 18.4993 19.8614 18.9345 19.8614 19.4904C19.8614 20.0227 19.3808 20.4815 18.825 20.4815Z" fill="white"/>
</svg>
