<?xml version="1.0" standalone="no"?>
<!DOCTYPE svg PUBLIC "-//W3C//DTD SVG 20010904//EN"
 "http://www.w3.org/TR/2001/REC-SVG-20010904/DTD/svg10.dtd">
<svg version="1.0" xmlns="http://www.w3.org/2000/svg"
 width="700.000000pt" height="700.000000pt" viewBox="0 0 700.000000 700.000000"
 preserveAspectRatio="xMidYMid meet">
<metadata>
Created by potrace 1.14, written by Peter Selinger 2001-2017
</metadata>
<g transform="translate(0.000000,700.000000) scale(0.100000,-0.100000)"
fill="#000000" stroke="none">
<path d="M1576 6069 c-55 -9 -74 -39 -80 -134 -2 -27 -4 -57 -5 -66 -1 -14
-17 -16 -101 -17 -166 -2 -181 -21 -195 -237 -10 -154 -12 -180 -30 -395 -3
-30 -7 -82 -10 -115 -2 -33 -7 -96 -11 -140 -3 -44 -8 -98 -9 -120 -7 -101
-16 -221 -20 -259 -2 -22 -6 -77 -10 -121 -6 -81 -12 -159 -20 -250 -2 -27 -7
-90 -10 -140 -3 -49 -8 -108 -10 -130 -2 -22 -7 -76 -10 -120 -3 -44 -8 -98
-10 -120 -2 -22 -7 -83 -10 -135 -4 -52 -8 -111 -10 -130 -2 -19 -6 -75 -10
-125 -3 -49 -8 -110 -10 -135 -7 -73 -14 -159 -21 -250 -3 -47 -7 -103 -9
-125 -4 -43 -12 -149 -20 -255 -9 -123 -15 -205 -20 -250 -3 -25 -7 -83 -10
-130 -3 -47 -8 -105 -10 -130 -7 -84 -15 -175 -20 -250 -11 -159 -15 -207 -19
-250 -3 -25 -8 -85 -11 -135 -4 -49 -8 -106 -10 -125 -22 -210 -16 -258 42
-295 27 -18 125 -19 2573 -19 1400 -1 2565 2 2589 5 33 5 52 15 74 39 l29 33
-6 130 c-4 72 -8 133 -10 136 -2 3 -7 53 -10 111 -4 58 -9 121 -11 140 -2 19
-6 73 -10 120 -3 47 -8 101 -10 120 -4 35 -11 126 -20 250 -3 36 -7 90 -10
120 -2 30 -7 89 -10 130 -3 41 -7 93 -10 115 -2 22 -7 76 -10 120 -3 44 -8 98
-10 120 -3 22 -7 78 -10 125 -3 47 -7 103 -10 125 -2 22 -7 76 -10 120 -3 44
-8 96 -10 115 -2 19 -6 76 -9 125 -7 99 -14 173 -21 250 -3 28 -7 79 -10 115
-5 74 -12 168 -20 253 -6 73 -13 155 -20 237 -3 36 -8 90 -10 120 -3 30 -8 89
-11 130 -11 145 -14 181 -29 370 -3 30 -7 84 -10 120 -3 36 -8 91 -10 123 -9
99 -15 175 -20 235 -2 31 -7 84 -10 117 -3 33 -7 89 -10 125 -4 74 -13 180
-21 260 -10 108 -45 133 -189 132 -76 -1 -105 2 -106 11 -9 129 -16 161 -44
187 l-25 24 -1904 0 c-1047 1 -1920 -2 -1940 -5z"/>
</g>
</svg>
